{"title":"Escape From Planet earth.2013.R5.Rip.XviD.CAM.AUDIO-FANTA","uid":8315894,"size":1244213769,"categoryP":"video","categoryS":"movies","magnet":"?xt=urn:btih:e99c8bd8216c5a4f829b4559e7d9b58019b9f424&amp;dn=Escape+From+Planet+earth.2013.R5.Rip.XviD.CAM.AUDIO-FANTA&amp;tr=udp%3A%2F%2Ftracker.openbittorrent.com%3A80&amp;tr=udp%3A%2F%2Fopen.demonii.com%3A1337&amp;tr=udp%3A%2F%2Ftracker.coppersurfer.tk%3A6969&amp;tr=udp%3A%2F%2Fexodus.desync.com%3A6969","seeders":1,"leechers":0,"uploader":"Gh0stNet","files":2,"time":1364586744,"description":"General\nFormat : AVI\nFormat/Info : Audio Video Interleave\nFormat profile : OpenDML\nFormat settings : rec\nFile size : 1.16 GiB\nDuration : 1h 25mn\nOverall bit rate : 1 932 Kbps\nWriting application : AVI-Mux GUI 1.17.8.3, Feb 16 201019:42:50\n\nVideo\nID : 0\nFormat : MPEG-4 Visual\nFormat profile : Advanced Simple@L5\nFormat settings, BVOP : 1\nFormat settings, QPel : No\nFormat settings, GMC : No warppoints\nFormat settings, Matrix : Custom\nCodec ID : XVID\nCodec ID/Hint : XviD\nDuration : 1h 25mn\nBit rate : 1 734 Kbps\nWidth : 720 pixels\nHeight : 304 pixels\nDisplay aspect ratio : 2.35:1\nFrame rate : 24.940 fps\nOriginal frame rate : 25.000 fps\nColor space : YUV\nChroma subsampling : 4:2:0\nBit depth : 8 bits\nScan type : Progressive\nCompression mode : Lossy\nBits/(Pixel*Frame) : 0.318\nStream size : 1.04 GiB (90%)\nWriting library : XviD 1.2.1 (UTC 2008-12-04)\n\nAudio\nID : 1\nFormat : AC-3\nFormat/Info : Audio Coding 3\nMode extension : CM (complete main)\nFormat settings, Endianness : Big\nCodec ID : 2000\nDuration : 1h 25mn\nBit rate mode : Constant\nBit rate : 192 Kbps\nChannel(s) : 2 channels\nChannel positions : Front: L R\nSampling rate : 48.0 KHz\nBit depth : 16 bits\nCompression mode : Lossy\nStream size : 118 MiB (10%)\nAlignment : Aligned on interleaves\nInterleave, duration : 64 ms (1.60 video frames)\nInterleave, preload duration : 192 ms\nTitle : Audio-English\n","torrent":{"xt":"urn:btih:e99c8bd8216c5a4f829b4559e7d9b58019b9f424","amp;dn":"Escape+From+Planet+earth.2013.R5.Rip.XviD.CAM.AUDIO-FANTA","amp;tr":["udp%3A%2F%2Ftracker.openbittorrent.com%3A80","udp%3A%2F%2Fopen.demonii.com%3A1337","udp%3A%2F%2Ftracker.coppersurfer.tk%3A6969","udp%3A%2F%2Fexodus.desync.com%3A6969"],"infoHash":"e99c8bd8216c5a4f829b4559e7d9b58019b9f424","infoHashBuffer":{"type":"Buffer","data":[233,156,139,216,33,108,90,79,130,155,69,89,231,217,181,128,25,185,244,36]},"announce":[],"urlList":[]}}